C:\OpenCap\opencap-processing\Data\7866dab3-7210-45d6-b98e-60491a15613b\OpenSimData\Dynamics\TRJave25\GRF_TRJave25_0.mot
version=1
nRows=4
nColumns=109
inDegrees=yes
endheader 
time	ground_force_SmoothSphereHalfSpaceForce_s1_r_vx	ground_force_SmoothSphereHalfSpaceForce_s1_r_vy	ground_force_SmoothSphereHalfSpaceForce_s1_r_vz	ground_force_SmoothSphereHalfSpaceForce_s1_r_px	ground_force_SmoothSphereHalfSpaceForce_s1_r_py	ground_force_SmoothSphereHalfSpaceForce_s1_r_pz	ground_torque_SmoothSphereHalfSpaceForce_s1_r_x	ground_torque_SmoothSphereHalfSpaceForce_s1_r_y	ground_torque_SmoothSphereHalfSpaceForce_s1_r_z	ground_force_SmoothSphereHalfSpaceForce_s2_r_vx	ground_force_SmoothSphereHalfSpaceForce_s2_r_vy	ground_force_SmoothSphereHalfSpaceForce_s2_r_vz	ground_force_SmoothSphereHalfSpaceForce_s2_r_px	ground_force_SmoothSphereHalfSpaceForce_s2_r_py	ground_force_SmoothSphereHalfSpaceForce_s2_r_pz	ground_torque_SmoothSphereHalfSpaceForce_s2_r_x	ground_torque_SmoothSphereHalfSpaceForce_s2_r_y	ground_torque_SmoothSphereHalfSpaceForce_s2_r_z	ground_force_SmoothSphereHalfSpaceForce_s3_r_vx	ground_force_SmoothSphereHalfSpaceForce_s3_r_vy	ground_force_SmoothSphereHalfSpaceForce_s3_r_vz	ground_force_SmoothSphereHalfSpaceForce_s3_r_px	ground_force_SmoothSphereHalfSpaceForce_s3_r_py	ground_force_SmoothSphereHalfSpaceForce_s3_r_pz	ground_torque_SmoothSphereHalfSpaceForce_s3_r_x	ground_torque_SmoothSphereHalfSpaceForce_s3_r_y	ground_torque_SmoothSphereHalfSpaceForce_s3_r_z	ground_force_SmoothSphereHalfSpaceForce_s4_r_vx	ground_force_SmoothSphereHalfSpaceForce_s4_r_vy	ground_force_SmoothSphereHalfSpaceForce_s4_r_vz	ground_force_SmoothSphereHalfSpaceForce_s4_r_px	ground_force_SmoothSphereHalfSpaceForce_s4_r_py	ground_force_SmoothSphereHalfSpaceForce_s4_r_pz	ground_torque_SmoothSphereHalfSpaceForce_s4_r_x	ground_torque_SmoothSphereHalfSpaceForce_s4_r_y	ground_torque_SmoothSphereHalfSpaceForce_s4_r_z	ground_force_SmoothSphereHalfSpaceForce_s5_r_vx	ground_force_SmoothSphereHalfSpaceForce_s5_r_vy	ground_force_SmoothSphereHalfSpaceForce_s5_r_vz	ground_force_SmoothSphereHalfSpaceForce_s5_r_px	ground_force_SmoothSphereHalfSpaceForce_s5_r_py	ground_force_SmoothSphereHalfSpaceForce_s5_r_pz	ground_torque_SmoothSphereHalfSpaceForce_s5_r_x	ground_torque_SmoothSphereHalfSpaceForce_s5_r_y	ground_torque_SmoothSphereHalfSpaceForce_s5_r_z	ground_force_SmoothSphereHalfSpaceForce_s6_r_vx	ground_force_SmoothSphereHalfSpaceForce_s6_r_vy	ground_force_SmoothSphereHalfSpaceForce_s6_r_vz	ground_force_SmoothSphereHalfSpaceForce_s6_r_px	ground_force_SmoothSphereHalfSpaceForce_s6_r_py	ground_force_SmoothSphereHalfSpaceForce_s6_r_pz	ground_torque_SmoothSphereHalfSpaceForce_s6_r_x	ground_torque_SmoothSphereHalfSpaceForce_s6_r_y	ground_torque_SmoothSphereHalfSpaceForce_s6_r_z	ground_force_SmoothSphereHalfSpaceForce_s1_l_vx	ground_force_SmoothSphereHalfSpaceForce_s1_l_vy	ground_force_SmoothSphereHalfSpaceForce_s1_l_vz	ground_force_SmoothSphereHalfSpaceForce_s1_l_px	ground_force_SmoothSphereHalfSpaceForce_s1_l_py	ground_force_SmoothSphereHalfSpaceForce_s1_l_pz	ground_torque_SmoothSphereHalfSpaceForce_s1_l_x	ground_torque_SmoothSphereHalfSpaceForce_s1_l_y	ground_torque_SmoothSphereHalfSpaceForce_s1_l_z	ground_force_SmoothSphereHalfSpaceForce_s2_l_vx	ground_force_SmoothSphereHalfSpaceForce_s2_l_vy	ground_force_SmoothSphereHalfSpaceForce_s2_l_vz	ground_force_SmoothSphereHalfSpaceForce_s2_l_px	ground_force_SmoothSphereHalfSpaceForce_s2_l_py	ground_force_SmoothSphereHalfSpaceForce_s2_l_pz	ground_torque_SmoothSphereHalfSpaceForce_s2_l_x	ground_torque_SmoothSphereHalfSpaceForce_s2_l_y	ground_torque_SmoothSphereHalfSpaceForce_s2_l_z	ground_force_SmoothSphereHalfSpaceForce_s3_l_vx	ground_force_SmoothSphereHalfSpaceForce_s3_l_vy	ground_force_SmoothSphereHalfSpaceForce_s3_l_vz	ground_force_SmoothSphereHalfSpaceForce_s3_l_px	ground_force_SmoothSphereHalfSpaceForce_s3_l_py	ground_force_SmoothSphereHalfSpaceForce_s3_l_pz	ground_torque_SmoothSphereHalfSpaceForce_s3_l_x	ground_torque_SmoothSphereHalfSpaceForce_s3_l_y	ground_torque_SmoothSphereHalfSpaceForce_s3_l_z	ground_force_SmoothSphereHalfSpaceForce_s4_l_vx	ground_force_SmoothSphereHalfSpaceForce_s4_l_vy	ground_force_SmoothSphereHalfSpaceForce_s4_l_vz	ground_force_SmoothSphereHalfSpaceForce_s4_l_px	ground_force_SmoothSphereHalfSpaceForce_s4_l_py	ground_force_SmoothSphereHalfSpaceForce_s4_l_pz	ground_torque_SmoothSphereHalfSpaceForce_s4_l_x	ground_torque_SmoothSphereHalfSpaceForce_s4_l_y	ground_torque_SmoothSphereHalfSpaceForce_s4_l_z	ground_force_SmoothSphereHalfSpaceForce_s5_l_vx	ground_force_SmoothSphereHalfSpaceForce_s5_l_vy	ground_force_SmoothSphereHalfSpaceForce_s5_l_vz	ground_force_SmoothSphereHalfSpaceForce_s5_l_px	ground_force_SmoothSphereHalfSpaceForce_s5_l_py	ground_force_SmoothSphereHalfSpaceForce_s5_l_pz	ground_torque_SmoothSphereHalfSpaceForce_s5_l_x	ground_torque_SmoothSphereHalfSpaceForce_s5_l_y	ground_torque_SmoothSphereHalfSpaceForce_s5_l_z	ground_force_SmoothSphereHalfSpaceForce_s6_l_vx	ground_force_SmoothSphereHalfSpaceForce_s6_l_vy	ground_force_SmoothSphereHalfSpaceForce_s6_l_vz	ground_force_SmoothSphereHalfSpaceForce_s6_l_px	ground_force_SmoothSphereHalfSpaceForce_s6_l_py	ground_force_SmoothSphereHalfSpaceForce_s6_l_pz	ground_torque_SmoothSphereHalfSpaceForce_s6_l_x	ground_torque_SmoothSphereHalfSpaceForce_s6_l_y	ground_torque_SmoothSphereHalfSpaceForce_s6_l_z	
          6.82000000	          0.00000000	         -0.00000000	         -0.00000000	         -4.65275431	          0.23330231	          0.07766506	          0.00000000	          0.00000000	          0.00000000	          0.00000000	         -0.00000000	         -0.00000000	         -4.60594215	          0.16487589	          0.12214135	          0.00000000	          0.00000000	          0.00000000	         -0.00000000	         -0.00000000	          0.00000000	         -4.66397662	          0.17953381	          0.17423954	          0.00000000	          0.00000000	          0.00000000	         -0.00000000	         -0.00000000	          0.00000000	         -4.66029339	          0.20720280	          0.12722793	          0.00000000	          0.00000000	          0.00000000	          0.00000000	         -0.00000000	         -0.00000000	         -4.59878333	          0.13185796	          0.16196839	          0.00000000	          0.00000000	          0.00000000	         -0.00000000	         -0.00000000	          0.00000000	         -4.65623087	          0.14657684	          0.21495304	          0.00000000	          0.00000000	          0.00000000	         -0.00000000	         -0.00000000	          0.00000000	         -4.29404208	          0.12973232	          0.38040815	          0.00000000	          0.00000000	          0.00000000	         -0.00000000	         -0.00000000	          0.00000000	         -4.20482254	          0.12857108	          0.50260758	          0.00000000	          0.00000000	          0.00000000	         -0.00000000	         -0.00000000	          0.00000000	         -4.15986577	          0.13577494	          0.43395668	          0.00000000	          0.00000000	          0.00000000	         -0.00000000	         -0.00000000	          0.00000000	         -4.22612063	          0.13296848	          0.40455024	          0.00000000	          0.00000000	          0.00000000	         -0.00000000	         -0.00000000	          0.00000000	         -4.14231708	          0.12924085	          0.54797325	          0.00000000	          0.00000000	          0.00000000	         -0.00000000	         -0.00000000	          0.00000000	         -4.09689838	          0.13649173	          0.47940930	          0.00000000	          0.00000000	          0.00000000	
          6.83000000	         -0.00000000	         -0.00000000	          0.00000000	         -4.59116611	          0.23411929	          0.06430154	          0.00000000	          0.00000000	          0.00000000	         -0.00000000	         -0.00000000	          0.00000000	         -4.53822459	          0.16715521	          0.11076295	          0.00000000	          0.00000000	          0.00000000	         -0.00000000	         -0.00000000	          0.00000000	         -4.60177676	          0.17938992	          0.15876304	          0.00000000	          0.00000000	          0.00000000	         -0.00000000	         -0.00000000	          0.00000000	         -4.59859149	          0.20746143	          0.11267872	          0.00000000	          0.00000000	          0.00000000	         -0.00000000	         -0.00000000	          0.00000000	         -4.52944475	          0.13415112	          0.15025229	          0.00000000	          0.00000000	          0.00000000	         -0.00000000	         -0.00000000	          0.00000000	         -4.59257481	          0.14642717	          0.19909863	          0.00000000	          0.00000000	          0.00000000	         -0.00000000	         -0.00000000	          0.00000000	         -4.28453800	          0.13114012	          0.37903135	          0.00000000	          0.00000000	          0.00000000	         -0.00000000	         -0.00000000	          0.00000000	         -4.19523096	          0.12861392	          0.50108438	          0.00000000	          0.00000000	          0.00000000	         -0.00000000	         -0.00000000	          0.00000000	         -4.14995358	          0.13506319	          0.43234410	          0.00000000	          0.00000000	          0.00000000	         -0.00000000	         -0.00000000	          0.00000000	         -4.21640367	          0.13330182	          0.40305373	          0.00000000	          0.00000000	          0.00000000	         -0.00000000	         -0.00000000	          0.00000000	         -4.13263662	          0.12831099	          0.54634572	          0.00000000	          0.00000000	          0.00000000	         -0.00000000	         -0.00000000	          0.00000000	         -4.08689511	          0.13480324	          0.47769231	          0.00000000	          0.00000000	          0.00000000	
          6.84000000	         -0.00000000	         -0.00000000	          0.00000000	         -4.52805639	          0.23264138	          0.05283429	          0.00000000	          0.00000000	          0.00000000	         -0.00000000	         -0.00000000	          0.00000000	         -4.46663534	          0.16813209	          0.10263265	          0.00000000	          0.00000000	          0.00000000	         -0.00000000	         -0.00000000	          0.00000000	         -4.53600247	          0.17694789	          0.14528201	          0.00000000	          0.00000000	          0.00000000	         -0.00000000	         -0.00000000	          0.00000000	         -4.53436260	          0.20538948	          0.10003198	          0.00000000	          0.00000000	          0.00000000	         -0.00000000	         -0.00000000	          0.00000000	         -4.45497903	          0.13537236	          0.14214235	          0.00000000	          0.00000000	          0.00000000	         -0.00000000	         -0.00000000	          0.00000000	         -4.52406900	          0.14421217	          0.18559556	          0.00000000	          0.00000000	          0.00000000	         -0.00000000	         -0.00000000	          0.00000000	         -4.27476152	          0.13266398	          0.37719407	          0.00000000	          0.00000000	          0.00000000	         -0.00000000	         -0.00000000	          0.00000000	         -4.18560047	          0.12806500	          0.49911176	          0.00000000	          0.00000000	          0.00000000	         -0.00000000	         -0.00000000	          0.00000000	         -4.13990705	          0.13370206	          0.43036117	          0.00000000	          0.00000000	          0.00000000	         -0.00000000	         -0.00000000	          0.00000000	         -4.20647934	          0.13337056	          0.40114403	          0.00000000	          0.00000000	          0.00000000	         -0.00000000	         -0.00000000	          0.00000000	         -4.12303167	          0.12638739	          0.54429062	          0.00000000	          0.00000000	          0.00000000	         -0.00000000	         -0.00000000	          0.00000000	         -4.07687129	          0.13206100	          0.47562743	          0.00000000	          0.00000000	          0.00000000	
          6.85000000	         -0.00000000	         -0.00000000	          0.00000000	         -4.46375369	          0.22922058	          0.04384634	          0.00000000	          0.00000000	          0.00000000	         -0.00000000	         -0.00000000	          0.00000000	         -4.39295816	          0.16810123	          0.09810415	          0.00000000	          0.00000000	          0.00000000	         -0.00000000	         -0.00000000	          0.00000000	         -4.46703780	          0.17288549	          0.13501336	          0.00000000	          0.00000000	          0.00000000	         -0.00000000	         -0.00000000	          0.00000000	         -4.46791479	          0.20151323	          0.09021389	          0.00000000	          0.00000000	          0.00000000	         -0.00000000	         -0.00000000	          0.00000000	         -4.37755119	          0.13590730	          0.13814294	          0.00000000	          0.00000000	          0.00000000	         -0.00000000	         -0.00000000	          0.00000000	         -4.45146972	          0.14069658	          0.17580560	          0.00000000	          0.00000000	          0.00000000	         -0.00000000	         -0.00000000	          0.00000000	         -4.26354900	          0.13421585	          0.37511147	          0.00000000	          0.00000000	          0.00000000	         -0.00000000	         -0.00000000	          0.00000000	         -4.17499373	          0.12688779	          0.49693668	          0.00000000	          0.00000000	          0.00000000	         -0.00000000	         -0.00000000	          0.00000000	         -4.12877506	          0.13168581	          0.42828254	          0.00000000	          0.00000000	          0.00000000	         -0.00000000	         -0.00000000	          0.00000000	         -4.19528868	          0.13312841	          0.39906670	          0.00000000	          0.00000000	          0.00000000	         -0.00000000	         -0.00000000	          0.00000000	         -4.11268099	          0.12347237	          0.54208046	          0.00000000	          0.00000000	          0.00000000	         -0.00000000	         -0.00000000	          0.00000000	         -4.06599248	          0.12829862	          0.47351527	          0.00000000	          0.00000000	          0.00000000	
